<?xml version="1.0" encoding="UTF-8"?>
<svg width="240px" height="307px" viewBox="0 0 240 307" version="1.1" xmlns="http://www.w3.org/2000/svg" xmlns:xlink="http://www.w3.org/1999/xlink">
    <title>plaan-completo-15-gigas</title>
    <defs>
        <path d="M8,0 L232,0 C236.418278,-8.11624501e-16 240,3.581722 240,8 L240,299 C240,303.418278 236.418278,307 232,307 L8,307 C3.581722,307 5.41083001e-16,303.418278 0,299 L0,8 C-5.41083001e-16,3.581722 3.581722,8.11624501e-16 8,0 Z" id="path-1"></path>
        <polygon id="path-3" points="0.000119230769 0.693703269 20.7807308 0.693703269 20.7807308 21.867811 0.000119230769 21.867811"></polygon>
        <polygon id="path-5" points="0.000119230769 0.697690069 20.7807308 0.697690069 20.7807308 21.9934881 0.000119230769 21.9934881"></polygon>
        <linearGradient x1="50%" y1="86.9690011%" x2="50%" y2="-4.76463835%" id="linearGradient-7">
            <stop stop-color="#FCDE87" offset="0%"></stop>
            <stop stop-color="#F5B444" offset="21%"></stop>
            <stop stop-color="#E14D75" offset="38%"></stop>
            <stop stop-color="#DE3A8D" offset="52%"></stop>
            <stop stop-color="#804492" offset="74%"></stop>
            <stop stop-color="#514F99" offset="100%"></stop>
        </linearGradient>
        <polygon id="path-8" points="0.000238461538 0.678610036 20.7807308 0.678610036 20.7807308 21.4297906 0.000238461538 21.4297906"></polygon>
    </defs>
    <g id="Page-1" stroke="none" stroke-width="1" fill="none" fill-rule="evenodd">
        <g id="Group-16">
            <g id="plaan-completo-15-gigas">
                <g id="plan_15_gigas_mobile">
                    <mask id="mask-2" fill="white">
                        <use xlink:href="#path-1"></use>
                    </mask>
                    <g id="Rectangle"></g>
                    <path d="M26,17.5 L26,18.5 L16,18.5 C11.9402718,18.5 8.63202911,21.7636074 8.50385494,25.8410397 L8.5,26.0866426 L8.5,289.913357 C8.5,294.022363 11.7286402,297.366539 15.7573375,297.496103 L16,297.5 L225,297.5 C229.059728,297.5 232.367971,294.236393 232.496145,290.15896 L232.5,289.913357 L232.5,26.0866426 C232.5,21.9776372 229.27136,18.6334611 225.242662,18.5038967 L225,18.5 L72,18.5 L72,17.5 L225,17.5 C229.610258,17.5 233.361365,21.2070017 233.496245,25.8289444 L233.5,26.0866426 L233.5,289.913357 C233.5,294.568229 229.832716,298.359865 225.255224,298.496204 L225,298.5 L16,298.5 C11.3897419,298.5 7.63863524,294.792998 7.50375542,290.171056 L7.5,289.913357 L7.5,26.0866426 C7.5,21.4317706 11.1672838,17.6401349 15.744776,17.5037961 L16,17.5 L26,17.5 Z" id="Path" fill="#592D7C" fill-rule="nonzero" mask="url(#mask-2)"></path>
                    <g id="Group-14" mask="url(#mask-2)">
                        <g transform="translate(10.000000, 10.000000)" id="plan_basal">
                            <g>
                                <g id="Group-9" transform="translate(0.000000, 27.000000)">
                                    <g id="minutos-rede" transform="translate(0.000000, 81.000000)">
                                        <g id="promo_wsp_minutos" transform="translate(19.000000, 0.000000)">
                                            <g id="WSP_LIBRE_NACIO" transform="translate(75.416262, 0.000000)">
                                                <g id="wsp" transform="translate(0.309936, 0.000000)">
                                                    <path d="M0.108346867,25.2640936 L1.81148897,19.0896275 C0.70421624,17.1730168 0.108346867,15.0444731 0.108346867,12.8299276 C0.108346867,6.10182524 5.64394263,0.566229479 12.414278,0.566229479 C19.1846134,0.566229479 24.8062109,6.10182524 24.8062109,12.8299276 C24.8062109,19.55803 19.1846134,25.2640936 12.414278,25.2640936 C10.2849665,25.2640936 8.24165666,24.5829903 6.41027979,23.5609515 L0.108346867,25.2640936 Z" id="Fill-46" fill="#FEFEFE"></path>
                                                    <path d="M6.75113857,21.3463292 L7.13430715,21.55903 C8.70998235,22.5388358 10.5413592,23.1347052 12.4572021,23.1347052 C18.0350309,23.1347052 22.6768226,18.4936814 22.6768226,12.8298508 C22.6768226,7.16678817 18.0350309,2.69546425 12.4142012,2.69546425 C6.79337158,2.69546425 2.23758164,7.20902118 2.23758164,12.8298508 C2.23758164,14.7886946 2.79121801,16.7053054 3.81248897,18.3232136 L4.06819064,18.7063822 L3.08915269,22.2831342 L6.75113857,21.3463292 Z" id="Fill-48" fill="#129F5C"></path>
                                                    <path d="M9.13576787,7.12417123 L8.32642983,7.08117034 C8.07072816,7.08117034 7.81579435,7.16640424 7.64532657,7.33687202 C7.26215799,7.67780759 6.62328773,8.31667785 6.45281995,9.1682489 C6.15488526,10.4452215 6.62328773,11.9786637 7.73056046,13.511338 C8.83783319,15.0440124 10.9663769,17.5142595 14.7135966,18.5785313 C15.9061033,18.9194669 16.8429082,18.7059982 17.6092454,18.2383636 C18.2058826,17.8551951 18.5890512,17.2585578 18.7165181,16.6196876 L18.8447529,16.0238182 C18.8869859,15.8533504 18.801752,15.6406496 18.6312842,15.5554157 L15.9491041,14.3206761 C15.7786364,14.2354422 15.5659356,14.2776752 15.4377008,14.448143 L14.3734289,15.8111174 C14.2881951,15.8955834 14.1599603,15.9385843 14.0324934,15.8955834 C13.3091571,15.6406496 10.881143,14.6186108 9.56116946,12.0638976 C9.51893645,11.9356628 9.51893645,11.8081959 9.60417034,11.722962 L10.6262092,10.5734563 C10.7114431,10.4452215 10.7536761,10.2755216 10.7114431,10.1472868 L9.47593557,7.3798729 C9.43370256,7.252406 9.30623566,7.12417123 9.13576787,7.12417123" id="Fill-50" fill="#FEFEFE"></path>
                                                </g>
                                                <g id="Group-29" transform="translate(27.418689, 2.708738)" fill="#4F008C" fill-rule="nonzero">
                                                    <path d="M3.81029126,12.6407767 L3.81029126,0.722330097 L1.37242718,0.722330097 L1.37242718,12.6407767 L3.81029126,12.6407767 Z M13.2306793,12.6407767 L13.2306793,10.4376699 L8.01184436,10.4376699 L8.01184436,0.722330097 L5.57398028,0.722330097 L5.57398028,12.6407767 L13.2306793,12.6407767 Z M16.5112615,12.6407767 L16.5112615,0.722330097 L14.0733975,0.722330097 L14.0733975,12.6407767 L16.5112615,12.6407767 Z M20.7128146,12.6407767 L20.7128146,6.28427184 L23.7104845,10.0403883 L24.5050476,10.0403883 L27.5027175,6.28427184 L27.5027175,12.6407767 L29.9405816,12.6407767 L29.9405816,0.505631068 L29.1460185,0.505631068 L24.1077661,6.95242718 L19.0695137,0.505631068 L18.2749506,0.505631068 L18.2749506,12.6407767 L20.7128146,12.6407767 Z M34.160193,12.6407767 L34.160193,0.722330097 L31.7223289,0.722330097 L31.7223289,12.6407767 L34.160193,12.6407767 Z M41.0524257,12.6407767 L41.0524257,2.92543689 L44.8807752,2.92543689 L44.8807752,0.722330097 L34.8042703,0.722330097 L34.8042703,2.92543689 L38.6145616,2.92543689 L38.6145616,12.6407767 L41.0524257,12.6407767 Z M45.6512603,12.6407767 L46.3194157,11.087767 L51.1951438,11.087767 L51.8632992,12.6407767 L54.4817458,12.6407767 L49.1726196,0.505631068 L48.3599982,0.505631068 L43.0328137,12.6407767 L45.6512603,12.6407767 Z M50.346406,9.08330097 L47.1681535,9.08330097 L48.7572797,5.05631068 L50.346406,9.08330097 Z M59.0444639,12.6407767 C60.9225222,12.6648544 62.4815513,12.1050485 63.7215513,10.9613592 C64.9615513,9.8176699 65.5695125,8.37902913 65.5454348,6.64543689 C65.5695125,4.89980583 64.9675707,3.47019417 63.7396095,2.35660194 C62.5116484,1.24300971 60.9465998,0.698252427 59.0444639,0.722330097 L59.0444639,0.722330097 L55.1438814,0.722330097 L55.1438814,12.6407767 L59.0444639,12.6407767 Z M59.0264057,10.4376699 L57.5817455,10.4376699 L57.5817455,2.92543689 L59.0264057,2.92543689 C60.2543668,2.92543689 61.2295125,3.25650485 61.9518426,3.91864078 C62.6741727,4.5807767 63.0353377,5.48970874 63.0353377,6.64543689 C63.0353377,7.78912621 62.6681532,8.70708738 61.9337843,9.39932039 C61.1994154,10.0915534 60.2302892,10.4376699 59.0264057,10.4376699 L59.0264057,10.4376699 Z M72.2751432,12.8574757 C73.9966966,12.8935922 75.4925219,12.2976699 76.762619,11.0697087 C78.032716,9.84174757 78.6557257,8.37902913 78.6316481,6.6815534 C78.6557257,4.98407767 78.032716,3.52135922 76.762619,2.29339806 C75.4925219,1.06543689 73.9966966,0.469514563 72.2751432,0.505631068 C70.5535898,0.469514563 69.063784,1.06543689 67.8057257,2.29339806 C66.5476675,3.52135922 65.9306772,4.98407767 65.9547549,6.6815534 C65.9306772,8.37902913 66.5476675,9.84174757 67.8057257,11.0697087 C69.063784,12.2976699 70.5535898,12.8935922 72.2751432,12.8574757 Z M72.2932015,10.6001942 C71.1856287,10.6001942 70.2706772,10.2330097 69.5483471,9.49864078 C68.826017,8.76427184 68.464852,7.82524272 68.464852,6.6815534 C68.464852,5.53786408 68.826017,4.59883495 69.5483471,3.86446602 C70.2706772,3.13009709 71.1856287,2.76291262 72.2932015,2.76291262 C73.3887355,2.76291262 74.3006772,3.1331068 75.0290267,3.87349515 C75.7573762,4.6138835 76.121551,5.54990291 76.121551,6.6815534 C76.121551,7.82524272 75.7573762,8.76427184 75.0290267,9.49864078 C74.3006772,10.2330097 73.3887355,10.6001942 72.2932015,10.6001942 Z" id="ILIMITADO"></path>
                                                    <path d="M1.47174757,16.8745473 C1.67038835,16.8745473 1.83592233,16.8068289 1.96834951,16.671392 C2.1007767,16.5359551 2.16699029,16.3689163 2.16699029,16.1702755 C2.16699029,15.9716347 2.1007767,15.8061007 1.96834951,15.6736735 C1.83592233,15.5412464 1.67038835,15.4750328 1.47174757,15.4750328 C1.2731068,15.4750328 1.10606796,15.5412464 0.970631068,15.6736735 C0.835194175,15.8061007 0.767475728,15.9716347 0.767475728,16.1702755 C0.767475728,16.3749357 0.835194175,16.5434794 0.970631068,16.6759065 C1.10606796,16.8083337 1.2731068,16.8745473 1.47174757,16.8745473 Z M2.04058252,21.5335765 L1.86,17.7413434 L1.07446602,17.7413434 L0.893883495,21.5335765 L2.04058252,21.5335765 Z M4.10825241,21.5335765 L4.10825241,15.5743531 L3.15116503,15.5743531 L3.15116503,21.5335765 L4.10825241,21.5335765 Z M9.97718442,21.6328968 L9.97718442,15.5743531 L9.02009704,15.5743531 L9.02009704,19.5923143 L5.39941743,15.4750328 L5.06533976,15.4750328 L5.06533976,21.5335765 L6.02242714,21.5335765 L6.02242714,17.497557 L9.65213588,21.6328968 L9.97718442,21.6328968 Z M13.7152427,21.6328968 C14.2630096,21.6328968 14.7611164,21.5110036 15.209563,21.2672172 C15.6580096,21.0234308 16.0116504,20.6878483 16.2704854,20.2604697 L16.2704854,20.2604697 L15.5481553,19.7277512 C15.1087378,20.4139648 14.5007766,20.7570716 13.7242718,20.7570716 C13.1102912,20.7570716 12.5986407,20.5478968 12.1893203,20.1295473 C11.7799999,19.7111978 11.5753397,19.1860036 11.5753397,18.5539648 C11.5753397,17.921926 11.7799999,17.3967318 12.1893203,16.9783823 C12.5986407,16.5600328 13.1102912,16.350858 13.7242718,16.350858 C14.5007766,16.350858 15.1087378,16.6939648 15.5481553,17.3801784 L15.5481553,17.3801784 L16.2704854,16.8474599 C16.0116504,16.4261007 15.6565048,16.0920231 15.2050485,15.8452269 C14.7535922,15.5984308 14.2569902,15.4750328 13.7152427,15.4750328 C12.8604854,15.4629939 12.120097,15.7609551 11.4940776,16.3689163 C10.8680582,16.9768774 10.5640776,17.7052269 10.5821359,18.5539648 C10.5640776,19.4027027 10.8680582,20.1310522 11.4940776,20.7390133 C12.120097,21.3469745 12.8604854,21.6449357 13.7152427,21.6328968 Z M20.5593203,21.5335765 L20.5593203,20.6758095 L17.8325242,20.6758095 L17.8325242,15.5743531 L16.8754368,15.5743531 L16.8754368,21.5335765 L20.5593203,21.5335765 Z M23.2861164,21.6328968 C24.0024271,21.6328968 24.5878154,21.4071687 25.0422814,20.9557124 C25.4967475,20.5042561 25.7239805,19.8932852 25.7239805,19.1227998 L25.7239805,19.1227998 L25.7239805,15.5743531 L24.7668931,15.5743531 L24.7668931,19.1860036 C24.7668931,19.6795959 24.6314562,20.0648386 24.3605824,20.3417318 C24.0897086,20.618625 23.7315533,20.7570716 23.2861164,20.7570716 C22.8346601,20.7570716 22.4719902,20.618625 22.1981067,20.3417318 C21.9242232,20.0648386 21.7872814,19.6795959 21.7872814,19.1860036 L21.7872814,19.1860036 L21.7872814,15.5743531 L20.8301941,15.5743531 L20.8301941,19.1227998 C20.8301941,19.8932852 21.0574271,20.5042561 21.5118931,20.9557124 C21.9663591,21.4071687 22.5577669,21.6328968 23.2861164,21.6328968 Z M29.1460193,21.5335765 L29.1460193,19.1318289 L31.2046601,15.5743531 L30.1482523,15.5743531 L28.6674756,18.1657124 L27.195728,15.5743531 L26.1302911,15.5743531 L28.1889319,19.1318289 L28.1889319,21.5335765 L29.1460193,21.5335765 Z M35.7011649,21.5335765 L35.7011649,20.6758095 L32.631262,20.6758095 L32.631262,18.7887221 L34.8614562,18.7887221 L34.8614562,17.9580425 L32.631262,17.9580425 L32.631262,16.4321201 L35.5928154,16.4321201 L35.5928154,15.5743531 L31.6741746,15.5743531 L31.6741746,21.5335765 L35.7011649,21.5335765 Z M41.9402911,21.5335765 L41.9402911,20.6758095 L39.213495,20.6758095 L39.213495,15.5743531 L38.2564076,15.5743531 L38.2564076,21.5335765 L41.9402911,21.5335765 Z M46.0485435,21.5335765 L46.0485435,20.6758095 L43.3217474,20.6758095 L43.3217474,15.5743531 L42.36466,15.5743531 L42.36466,21.5335765 L46.0485435,21.5335765 Z M46.9424269,21.5335765 L47.3667959,20.5403726 L50.0484464,20.5403726 L50.4728153,21.5335765 L51.5021357,21.5335765 L48.87466,15.4750328 L48.5496114,15.4750328 L45.9221357,21.5335765 L46.9424269,21.5335765 Z M49.7053396,19.7187221 L47.7099027,19.7187221 L48.7121357,17.2537706 L49.7053396,19.7187221 Z M52.8655337,21.5335765 L52.8655337,17.7864891 L54.5810677,20.0347415 L54.9061162,20.0347415 L56.6126211,17.7955182 L56.6126211,21.5335765 L57.5697085,21.5335765 L57.5697085,15.4750328 L57.2446599,15.4750328 L54.743592,18.8067803 L52.242524,15.4750328 L51.9084463,15.4750328 L51.9084463,21.5335765 L52.8655337,21.5335765 Z M58.9963104,21.5335765 L59.4206793,20.5403726 L62.1023298,20.5403726 L62.5266987,21.5335765 L63.5560191,21.5335765 L60.9285434,15.4750328 L60.6034949,15.4750328 L57.9760191,21.5335765 L58.9963104,21.5335765 Z M61.759223,19.7187221 L59.7637861,19.7187221 L60.7660191,17.2537706 L61.759223,19.7187221 Z M65.8313589,21.5335765 C66.7944657,21.5335765 67.5754851,21.2536735 68.1744172,20.6938677 C68.7733492,20.1340619 69.0728152,19.4177512 69.0728152,18.5449357 C69.0728152,17.6600813 68.7748541,16.9437706 68.1789317,16.3960036 C67.5830094,15.8482366 66.8004851,15.5743531 65.8313589,15.5743531 L65.8313589,15.5743531 L63.9623298,15.5743531 L63.9623298,21.5335765 L65.8313589,21.5335765 Z M65.8223298,20.6758095 L64.9194172,20.6758095 L64.9194172,16.4411493 L65.8223298,16.4411493 C66.5145628,16.4411493 67.0653395,16.6322658 67.4746599,17.0144988 C67.8839803,17.3967318 68.0886405,17.9068774 68.0886405,18.5449357 C68.0886405,19.1769745 67.8824754,19.6901298 67.4701453,20.0844017 C67.0578152,20.4786735 66.5085434,20.6758095 65.8223298,20.6758095 L65.8223298,20.6758095 Z M69.9937861,21.5335765 L70.418155,20.5403726 L73.0998055,20.5403726 L73.5241744,21.5335765 L74.5534948,21.5335765 L71.9260191,15.4750328 L71.6009706,15.4750328 L68.9734948,21.5335765 L69.9937861,21.5335765 Z M72.7566987,19.7187221 L70.7612618,19.7187221 L71.7634948,17.2537706 L72.7566987,19.7187221 Z M76.7385433,21.6328968 C77.3164074,21.6328968 77.7934463,21.4733823 78.1696598,21.1543531 C78.5458734,20.835324 78.7339802,20.4199842 78.7339802,19.9083337 C78.7339802,19.523091 78.6211162,19.2010522 78.395388,18.9422172 C78.1696598,18.6833823 77.8069899,18.4395959 77.3073783,18.210858 L77.3073783,18.210858 L76.639223,17.9038677 C76.6211647,17.8918289 76.5940773,17.8767803 76.5579608,17.8587221 C76.35932,17.756392 76.2419414,17.6961978 76.2058249,17.6781396 C76.1697084,17.6600813 76.1065045,17.6134308 76.0162132,17.5381881 C75.925922,17.4629454 75.8702424,17.3907124 75.8491744,17.3214891 C75.8281065,17.2522658 75.8145628,17.1634794 75.8085433,17.0551298 C75.8085433,16.826392 75.8928152,16.6488192 76.0613589,16.5224114 C76.2299026,16.3960036 76.4466016,16.3327998 76.711456,16.3327998 C77.2231065,16.3327998 77.641456,16.5735765 77.9665045,17.0551298 L77.9665045,17.0551298 L78.6346598,16.5404697 C78.4480579,16.2154211 78.1847084,15.9565862 77.8446113,15.7639648 C77.5045142,15.5713434 77.1267958,15.4750328 76.711456,15.4750328 C76.1817472,15.4750328 75.7363103,15.6255182 75.3751453,15.9264891 C75.0139802,16.2274599 74.8333977,16.6157124 74.8333977,17.0912464 C74.8333977,17.4704697 74.9492715,17.7879939 75.1810191,18.0438192 C75.4127666,18.2996444 75.760388,18.5328968 76.2238832,18.7435765 L76.2238832,18.7435765 L76.8830094,19.0505667 C77.2140773,19.2070716 77.4428152,19.3440133 77.569223,19.461392 C77.6956307,19.5787706 77.7588346,19.73979 77.7588346,19.9444502 C77.7588346,20.1972658 77.6640288,20.3989163 77.4744171,20.5494017 C77.2848055,20.6998871 77.0365045,20.7751298 76.7295142,20.7751298 C76.1215531,20.7751298 75.6008734,20.4591104 75.1674754,19.8270716 L75.1674754,19.8270716 L74.4902909,20.3417318 C74.7250482,20.7450328 75.0380579,21.0610522 75.42932,21.28979 C75.8205822,21.5185279 76.2569899,21.6328968 76.7385433,21.6328968 Z M80.5307763,19.5020231 L80.7023297,15.5743531 L79.5646598,15.5743531 L79.7452424,19.5020231 L80.5307763,19.5020231 Z M80.1425239,21.6328968 C80.3411647,21.6328968 80.5066987,21.5666832 80.6391258,21.4342561 C80.771553,21.3018289 80.8377666,21.1362949 80.8377666,20.9376541 C80.8377666,20.7329939 80.771553,20.5644502 80.6391258,20.4320231 C80.5066987,20.2995959 80.3411647,20.2333823 80.1425239,20.2333823 C79.9438831,20.2333823 79.7768443,20.2995959 79.6414074,20.4320231 C79.5059705,20.5644502 79.4382521,20.7329939 79.4382521,20.9376541 C79.4382521,21.1362949 79.5059705,21.3018289 79.6414074,21.4342561 C79.7768443,21.5666832 79.9438831,21.6328968 80.1425239,21.6328968 Z" id="¡INCLUYELLAMADAS!"></path>
                                                </g>
                                            </g>
                                            <g id="minutos_libres" transform="translate(0.000000, 3.338592)" fill="#4F008C" fill-rule="nonzero">
                                                <path d="M6.1265441,16.3292159 L6.1265441,3.88761863 L5.08974433,3.88761863 L0,5.56534916 L0.772887101,8.43068671 L2.88418845,7.73320323 L2.88418845,16.3292159 L6.1265441,16.3292159 Z M11.4802011,16.5554267 C13.1139462,16.5554267 14.3832404,15.9459141 15.2880839,14.726889 C16.1929273,13.5078638 16.645349,11.936955 16.645349,10.0141627 C16.645349,8.11650496 16.1960691,6.58329803 15.2975093,5.41454192 C14.3989495,4.24578582 13.1265135,3.66140777 11.4802011,3.66140777 C9.83388873,3.66140777 8.56145265,4.24578582 7.66289285,5.41454192 C6.76433305,6.58329803 6.31505315,8.11650496 6.31505315,10.0141627 C6.31505315,11.936955 6.76747486,13.5078638 7.6723183,14.726889 C8.57716174,15.9459141 9.846456,16.5554267 11.4802011,16.5554267 Z M11.4802011,13.5769838 C10.2486086,13.5769838 9.63281241,12.3956604 9.63281241,10.0330136 C9.63281241,8.86425752 9.78361965,8.00654135 10.0852341,7.45986511 C10.3868486,6.91318886 10.8518376,6.63985074 11.4802011,6.63985074 C12.1085646,6.63985074 12.5735536,6.91318886 12.8751681,7.45986511 C13.1767825,8.00654135 13.3275898,8.86425752 13.3275898,10.0330136 C13.3275898,12.3956604 12.7117935,13.5769838 11.4802011,13.5769838 Z M21.4334789,16.5554267 C23.067224,16.5554267 24.3365182,15.9459141 25.2413617,14.726889 C26.1462051,13.5078638 26.5986268,11.936955 26.5986268,10.0141627 C26.5986268,8.11650496 26.1493469,6.58329803 25.2507871,5.41454192 C24.3522273,4.24578582 23.0797912,3.66140777 21.4334789,3.66140777 C19.7871665,3.66140777 18.5147304,4.24578582 17.6161706,5.41454192 C16.7176108,6.58329803 16.2683309,8.11650496 16.2683309,10.0141627 C16.2683309,11.936955 16.7207527,13.5078638 17.6255961,14.726889 C18.5304395,15.9459141 19.7997338,16.5554267 21.4334789,16.5554267 Z M21.4334789,13.5769838 C20.2018864,13.5769838 19.5860902,12.3956604 19.5860902,10.0330136 C19.5860902,8.86425752 19.7368974,8.00654135 20.0385119,7.45986511 C20.3401264,6.91318886 20.8051154,6.63985074 21.4334789,6.63985074 C22.0618424,6.63985074 22.5268314,6.91318886 22.8284458,7.45986511 C23.1300603,8.00654135 23.2808676,8.86425752 23.2808676,10.0330136 C23.2808676,12.3956604 22.6650713,13.5769838 21.4334789,13.5769838 Z M31.3867567,16.5554267 C33.0205018,16.5554267 34.289796,15.9459141 35.1946395,14.726889 C36.0994829,13.5078638 36.5519046,11.936955 36.5519046,10.0141627 C36.5519046,8.11650496 36.1026247,6.58329803 35.2040649,5.41454192 C34.3055051,4.24578582 33.033069,3.66140777 31.3867567,3.66140777 C29.7404443,3.66140777 28.4680082,4.24578582 27.5694484,5.41454192 C26.6708886,6.58329803 26.2216087,8.11650496 26.2216087,10.0141627 C26.2216087,11.936955 26.6740305,13.5078638 27.5788739,14.726889 C28.4837173,15.9459141 29.7530116,16.5554267 31.3867567,16.5554267 Z M31.3867567,13.5769838 C30.1551642,13.5769838 29.539368,12.3956604 29.539368,10.0330136 C29.539368,8.86425752 29.6901752,8.00654135 29.9917897,7.45986511 C30.2934042,6.91318886 30.7583932,6.63985074 31.3867567,6.63985074 C32.0151202,6.63985074 32.4801092,6.91318886 32.7817236,7.45986511 C33.0833381,8.00654135 33.2341454,8.86425752 33.2341454,10.0330136 C33.2341454,12.3956604 32.6183491,13.5769838 31.3867567,13.5769838 Z M41.8113071,16.3292159 L41.8113071,8.50609033 L45.392979,13.1999657 L46.0716116,13.1999657 L49.6344326,8.52494123 L49.6344326,16.3292159 L51.6326286,16.3292159 L51.6326286,3.68025867 L50.953996,3.68025867 L45.7322953,10.6362426 L40.5105947,3.68025867 L39.8131112,3.68025867 L39.8131112,16.3292159 L41.8113071,16.3292159 Z M54.4979661,16.3292159 L54.4979661,3.88761863 L52.4997702,3.88761863 L52.4997702,16.3292159 L54.4979661,16.3292159 Z M65.62,16.5365758 L65.62,3.88761863 L63.6218041,3.88761863 L63.6218041,12.2762713 L56.0625912,3.68025867 L55.3651077,3.68025867 L55.3651077,16.3292159 L57.3633036,16.3292159 L57.3633036,7.90286137 L64.9413674,16.5365758 L65.62,16.5365758 Z" id="1000MIN"></path>
                                                <polygon id="Line-2" points="70.9902046 0.0876560333 70.9902046 19.5988211 69.9902046 19.5988211 69.9902046 0.0876560333"></polygon>
                                            </g>
                                        </g>
                                        <g id="line" transform="translate(0.000000, 32.000000)" fill="#E8E8E8" fill-rule="nonzero">
                                            <polygon id="Line-3" points="219 0 219 1 0 1 0 0"></polygon>
                                        </g>
                                        <g id="redes¨_ibres_en_red" transform="translate(16.000000, 42.000000)">
                                            <g id="redes_sociales" transform="translate(0.000000, 0.894231)">
                                                <g id="face" transform="translate(73.326923, 0.000000)">
                                                    <g id="Group-3">
                                                        <mask id="mask-4" fill="white">
                                                            <use xlink:href="#path-3"></use>
                                                        </mask>
                                                        <g id="Clip-2"></g>
                                                        <path d="M20.78085,11.2812431 C20.78085,17.1273029 16.1284654,21.867811 10.3898885,21.867811 C4.65131154,21.867811 0.000119230769,17.1273029 0.000119230769,11.2812431 C0.000119230769,5.43396844 4.65131154,0.693460291 10.3898885,0.693460291 C16.1284654,0.693460291 20.78085,5.43396844 20.78085,11.2812431" id="Fill-1" fill="#0F5CA5" mask="url(#mask-4)"></path>
                                                    </g>
                                                    <path d="M12.6847851,7.28362935 L14.0325444,7.28123124 L14.0325444,5.05338705 C13.7980464,5.02221162 13.0014783,4.95266272 12.0707387,4.95266272 C10.1282732,4.95026832 8.79985395,6.11095356 8.79985395,8.24527146 L8.79985395,10.0858209 L6.6035503,10.0822237 L6.6035503,12.5786562 L8.79985395,12.5810543 L8.79985395,18.9816099 L11.4264736,18.9852071 L11.4264736,12.5810543 L13.6155247,12.5834525 L13.9443054,10.0906171 L11.4264736,10.088219 L11.4264736,8.49707301 C11.4264736,7.77284379 11.629544,7.2824303 12.6847851,7.28362935" id="Fill-4" fill="#FEFEFE"></path>
                                                </g>
                                                <g id="twitter" transform="translate(97.471154, 0.000000)">
                                                    <g id="Group-3">
                                                        <mask id="mask-6" fill="white">
                                                            <use xlink:href="#path-5"></use>
                                                        </mask>
                                                        <g id="Clip-2"></g>
                                                        <path d="M20.78085,11.3460778 C20.78085,17.2257357 16.1284654,21.9934881 10.3910808,21.9934881 C4.65250385,21.9934881 0.000119230769,17.2257357 0.000119230769,11.3460778 C0.000119230769,5.46519815 4.65250385,0.697445694 10.3910808,0.697445694 C16.1284654,0.697445694 20.78085,5.46519815 20.78085,11.3460778" id="Fill-1" fill="#0098D3" mask="url(#mask-6)"></path>
                                                    </g>
                                                    <path d="M15.4429822,9.485589 C15.3474905,13.0494461 12.5433904,15.5242888 8.28884928,15.674786 C6.54548104,15.7531699 5.28860415,15.2870467 4.12721893,14.7446297 C5.38280539,14.9003525 7.03326282,14.5126132 7.90043045,13.8928574 C6.64484399,13.8155186 5.87058718,13.2751919 5.48216835,12.4192391 C5.87058718,12.4997133 6.25642516,12.4202842 6.54548104,12.4202842 C5.38280539,12.1098838 4.6137103,11.5674668 4.51434734,10.3269101 C4.80856493,10.4815878 5.18924119,10.562062 5.5763696,10.562062 C4.70791154,10.1722324 4.12721893,8.69861411 4.80856493,7.76950298 C6.06415139,8.85642713 7.60750329,9.78867362 10.1251283,9.94544153 C9.4502345,7.77368346 13.1240831,6.61569119 14.5745241,8.08826439 C15.249418,8.0130158 15.7359094,7.77995417 16.217239,7.62945698 C16.0236748,8.16873858 15.6365464,8.48018416 15.1552168,8.78849437 C15.6365464,8.71011042 16.1230378,8.63590694 16.5088757,8.48018416 C16.4095128,8.86583321 15.9294736,9.17623366 15.4429822,9.485589" id="Fill-4" fill="#FEFEFE"></path>
                                                </g>
                                                <g id="insta" transform="translate(25.038462, 0.894231)">
                                                    <circle id="Oval" fill="url(#linearGradient-7)" cx="10.2836538" cy="10.2836538" r="10.2836538"></circle>
                                                    <path d="M13.0487451,4.11346154 L7.51856263,4.11346154 C6.62205831,4.10685783 5.75964679,4.4609337 5.12106117,5.0978847 C4.48247555,5.73483571 4.12002925,6.60248234 4.11346154,7.50993975 L4.11346154,13.0447892 C4.1271405,14.9364864 5.64966035,16.4607335 7.51856263,16.4538462 L13.0487451,16.4538462 C13.947391,16.460448 14.8116803,16.104649 15.4506244,15.4649801 C16.0895684,14.8253112 16.4505666,13.9544326 16.4538462,13.0447892 L16.4538462,7.52251896 C16.4401672,5.63082181 14.9176473,4.10657469 13.0487451,4.11346154 L13.0487451,4.11346154 Z M15.360237,13.0573684 C15.35695,13.6745705 15.1115697,14.2651708 14.6780789,14.6992395 C14.2445881,15.1333082 13.6584976,15.3752871 13.0487451,15.3719761 L7.51856263,15.3719761 C6.9088101,15.3752871 6.32271956,15.1333082 5.88922878,14.6992395 C5.455738,14.2651708 5.2103577,13.6745705 5.20707065,13.0573684 L5.20707065,7.50993975 C5.2103577,6.89273769 5.455738,6.30213736 5.88922878,5.8680687 C6.32271956,5.43400004 6.9088101,5.19202109 7.51856263,5.1953321 L13.0487451,5.1953321 C13.6606453,5.1920183 14.248619,5.43572093 14.6824688,5.87251012 C15.1163186,6.3092993 15.360237,6.90313402 15.360237,7.52251896 L15.360237,13.0573684 Z" id="Shape" fill="#FFFFFF" fill-rule="nonzero"></path>
                                                    <path d="M10.2495114,7.40432069 C8.66383122,7.42312492 7.39182319,8.72051902 7.4043221,10.3062929 C7.416821,11.8920667 8.70912157,13.1692484 10.2949012,13.1630769 C11.8806808,13.1568606 13.1629654,11.8696229 13.1630769,10.2837998 C13.1600745,9.51511024 12.8510523,8.77926873 12.3043192,8.23893201 C11.7575862,7.69859529 11.0181678,7.3982621 10.2495114,7.40432069 M10.2495114,12.1731366 C9.20915439,12.1605667 8.37473731,11.3092271 8.38306914,10.2688073 C8.39140097,9.22838751 9.23934546,8.39052102 10.2797698,8.39463411 C11.3201942,8.39877757 12.1614633,9.24334664 12.1615388,10.2837998 C12.1585293,10.7878953 11.9553913,11.2701478 11.5968147,11.6244627 C11.238238,11.9787776 10.7535969,12.1761299 10.2495114,12.1731366" id="Shape" fill="#FFFFFF" fill-rule="nonzero"></path>
                                                    <path d="M13.9921557,5.75884615 C13.771864,5.7585863 13.5605008,5.84673539 13.4046021,6.00388609 C13.2501272,6.15670816 13.1630769,6.36587974 13.1630769,6.58424247 C13.1630769,6.80260519 13.2501272,7.01177677 13.4046021,7.16459885 C13.7274351,7.48410808 14.2441034,7.48410808 14.5669363,7.16459885 C14.7214112,7.01177677 14.8084615,6.80260519 14.8084615,6.58424247 C14.8084615,6.36587974 14.7214112,6.15670816 14.5669363,6.00388609 C14.4110377,5.84673539 14.1996744,5.7585863 13.9793828,5.75884615" id="Path" fill="#FFFFFF"></path>
                                                </g>
                                                <g id="snapchat" transform="translate(49.182692, 0.894231)">
                                                    <g id="Group-3">
                                                        <mask id="mask-9" fill="white">
                                                            <use xlink:href="#path-8"></use>
                                                        </mask>
                                                        <g id="Clip-2"></g>
                                                        <path d="M20.7809692,11.0542003 C20.7809692,16.7842882 16.1285846,21.4297906 10.3912,21.4297906 C4.65262308,21.4297906 0.000238461538,16.7842882 0.000238461538,11.0542003 C0.000238461538,5.32411243 4.65262308,0.678610036 10.3912,0.678610036 C16.1285846,0.678610036 20.7809692,5.32411243 20.7809692,11.0542003" id="Fill-1" fill="#FFE91B" mask="url(#mask-9)"></path>
                                                    </g>
                                                    <g id="Group-7" transform="translate(4.952663, 4.952663)">
                                                        <path d="M0.209745266,8.54276538 C0.571454734,8.4845716 0.90542929,8.33722988 1.19664586,8.13169438 C1.4485713,7.96949467 1.68431805,7.74786302 1.89232988,7.48289556 C2.25519497,7.04210858 2.43547189,6.61370325 2.46436243,6.53941331 L2.46436243,6.52579349 C2.56143462,6.33387781 2.57530207,6.15682012 2.51867663,6.02433639 C2.4088926,5.75813077 2.07376243,5.64050503 1.83801568,5.56621509 L1.79641331,5.5513571 C1.75365533,5.53649911 1.71205296,5.52164112 1.68431805,5.50678314 C1.51675296,5.4324932 1.39194586,5.35820325 1.32260858,5.28515148 C1.21166893,5.18238373 1.19664586,5.07837781 1.21166893,5.02018402 C1.22553639,4.94589408 1.28100621,4.85798432 1.3780784,4.79855237 C1.50404112,4.72550059 1.67045059,4.69578462 1.76752278,4.75521657 C2.08762988,4.91741627 2.35226716,4.96199024 2.54756716,4.85922249 C2.60303698,4.82950651 2.63077189,4.77007456 2.63077189,4.71188077 C2.63077189,4.62273284 2.61690444,4.53482308 2.61690444,4.44691331 L2.61690444,4.43205533 C2.57530207,3.6643926 2.51867663,2.70605237 2.74171154,2.16125947 C2.90927663,1.77742811 3.11728846,1.45426686 3.38308136,1.18806124 C3.60496065,0.967667751 3.85573047,0.790610059 4.14810266,0.658126331 C4.64848669,0.422874852 5.10726834,0.394397041 5.34417071,0.395597983 L5.55218254,0.395597983 C5.78908491,0.395597983 6.24902219,0.425351183 6.74940621,0.661840828 C7.0417784,0.795562722 7.2913926,0.971382249 7.51442751,1.19301391 C7.77906479,1.45921953 8.0020997,1.78361893 8.15464172,2.1674503 C8.39154408,2.71348136 8.3222068,3.6718216 8.28060444,4.42462633 L8.28060444,4.46796213 C8.28060444,4.52739408 8.26673698,4.57072988 8.26673698,4.63016183 L8.26673698,4.70321361 C8.26673698,4.76264556 8.29447189,4.82207751 8.34994172,4.85179349 C8.40541154,4.8802713 8.47474882,4.89512929 8.54408609,4.89512929 L8.57182101,4.89512929 C8.72551864,4.88150947 8.89192811,4.8369355 9.07336065,4.74902574 C9.14385355,4.71930976 9.21319083,4.71930976 9.23977012,4.71930976 C9.31026302,4.71930976 9.36573284,4.73416775 9.43507012,4.76512189 C9.58761213,4.82331568 9.70086302,4.94217959 9.70086302,5.05980533 C9.70086302,5.10314112 9.68583994,5.17743107 9.60147959,5.26534083 C9.51827485,5.35448876 9.39231213,5.4287787 9.21319083,5.5154503 C9.1843003,5.53154645 9.14385355,5.54640444 9.11496302,5.54640444 L9.07336065,5.56002426 C8.85032574,5.63307604 8.50248373,5.75070178 8.39154408,6.0169074 C8.33607426,6.14939112 8.34994172,6.32644882 8.44816953,6.53198432 C8.44816953,6.54684231 8.44816953,6.54684231 8.46088136,6.56293846 C8.58684408,6.85762189 9.28252811,8.30379941 10.7154985,8.55638521 C10.7709683,8.57000503 10.8125707,8.61581716 10.8125707,8.68886893 C10.8125707,8.71734675 10.7987033,8.74830089 10.7987033,8.76192071 C10.7582565,8.85106864 10.6600287,8.9389784 10.4924636,9.02688817 C10.2705843,9.14451391 9.92274231,9.23366183 9.46280503,9.30547544 C9.42120266,9.3215716 9.3796003,9.35004941 9.35186538,9.39462337 C9.32413047,9.43919734 9.31026302,9.54196509 9.28252811,9.67444882 L9.26866065,9.74873876 C9.25363757,9.80817071 9.23977012,9.88122249 9.22705828,9.94065444 C9.19816775,10.0137062 9.15772101,10.0582802 9.07336065,10.0582802 C9.03175828,10.0582802 8.96242101,10.0582802 8.85032574,10.027326 C8.69662811,9.99884822 8.50248373,9.95427426 8.25286953,9.95303609 C8.10032751,9.95303609 7.96049734,9.96789408 7.82182278,9.99761006 C7.52829497,10.0558038 7.26481331,10.2328615 6.98630858,10.4396352 C6.60957604,10.7182225 6.19239675,11.0426219 5.55218254,11.0413873 L5.48400089,11.0413873 L5.45626598,11.0413873 L5.42737544,11.0413873 C4.78831686,11.0401456 4.36998195,10.7157462 3.97938195,10.4346825 C3.71705592,10.244005 3.46513047,10.0508512 3.16004645,9.99141923 C3.02021627,9.96170325 2.86651864,9.94684527 2.72784408,9.94684527 C2.47822988,9.94684527 2.28292988,9.99018107 2.1430997,10.019897 L2.13038787,10.019897 C2.06105059,10.034755 1.97669024,10.049613 1.90735296,10.049613 C1.82414822,10.049613 1.76752278,10.019897 1.73978787,9.93074911 C1.68431805,9.82798136 1.65773876,9.75369142 1.64271568,9.67940148 L1.62884822,9.63482751 C1.60111331,9.51720178 1.58724586,9.41443402 1.54448787,9.35500207 C1.53062041,9.31166627 1.49017367,9.2819503 1.4485713,9.2819503 C0.988634024,9.20766036 0.640792012,9.10365444 0.405045266,8.99964852 C0.251347633,8.92659675 0.139252367,8.83744882 0.09765,8.74830089 C0.0837825444,8.71982308 0.0837825444,8.6901071 0.0837825444,8.67524911 L0.0837825444,8.6467713 C0.139252367,8.58733935 0.168142899,8.55762337 0.209745266,8.54276538" id="Fill-4" fill="#FEFEFE"></path>
                                                        <path d="M5.55218254,0.697060024 L5.34264232,0.697060024 C5.00294411,0.695372059 4.64281176,0.758701515 4.27254288,0.932747674 C4.01849823,1.0478639 3.79648684,1.20238426 3.59643939,1.40108848 C3.36405003,1.63383869 3.17493234,1.92247749 3.02073431,2.2754897 C2.91913742,2.52365382 2.87640453,2.91116587 2.88013482,3.45015534 L2.88698859,3.76938988 L2.93227189,4.71188077 C2.93227189,4.88011056 2.84563961,5.04157922 2.68796647,5.12603756 C2.39312691,5.28118348 2.03912729,5.23083587 1.61009339,5.01235124 C1.61988007,5.01834308 1.61186655,5.02303526 1.59608992,5.02930036 L1.53550779,5.05568704 L1.525,5.064 L1.54128843,5.07759095 C1.56859864,5.10636421 1.63284436,5.14787378 1.7390718,5.19998195 L1.86043789,5.25417028 L1.9286333,5.27865519 C2.39225108,5.42475323 2.66016363,5.57660517 2.79591487,5.90584079 C2.87867444,6.09946924 2.87062834,6.32485726 2.78350286,6.54966871 L2.749,6.624 L2.74536183,6.64869086 C2.65424502,6.88299124 2.48658156,7.19847165 2.25219173,7.51253794 L2.12948175,7.66907086 C1.89953766,7.96197584 1.63891579,8.20552932 1.37049939,8.3780218 C1.14477471,8.53733429 0.901721899,8.66138228 0.647226271,8.74529018 L0.608,8.756 L0.677987264,8.78410307 C0.839952036,8.84281706 1.03224771,8.89627509 1.23840434,8.9400572 L1.4485713,8.9804503 C1.62369652,8.9804503 1.77853255,9.09713967 1.78922993,9.17892375 C1.83222861,9.23869025 1.85642942,9.29451635 1.87794259,9.37336585 L1.91673754,9.54526195 L1.95610549,9.68197167 L1.98,9.741 L2.13038787,9.71839704 L2.08042612,9.72498303 L2.1942724,9.70127901 C2.37799309,9.66485055 2.54214647,9.64534527 2.72784408,9.64534527 C2.89084217,9.64534527 3.06521543,9.66303317 3.21769652,9.69548221 C3.4457209,9.73990255 3.63308146,9.82835152 3.87499256,9.99050716 L4.2949,10.2904233 C4.68855909,10.5721749 4.95524045,10.7043887 5.28274497,10.733559 L5.42737544,10.7399298 L5.55276398,10.7399298 C5.9010779,10.7405595 6.16551966,10.6426309 6.51266849,10.4090719 L6.80658163,10.1975599 C7.19885018,9.90632313 7.45243276,9.76347581 7.75864976,9.70280263 C7.91963473,9.66830585 8.08071757,9.65153609 8.25436504,9.6515398 C8.37209474,9.65212378 8.47869476,9.66027293 8.59262676,9.67603717 L8.93057876,9.73670308 L8.96,9.743 L8.97228005,9.69341438 L9.02258324,9.43749865 C9.04142719,9.3508501 9.05911688,9.2944156 9.09587482,9.23534035 C9.15813396,9.13528102 9.24977076,9.06461952 9.41629302,9.00758472 C9.79879407,8.94786184 10.081444,8.87846166 10.267437,8.79992646 L10.329,8.77 L10.2497262,8.74698392 C9.78355171,8.58759205 9.3737583,8.30734306 9.01825462,7.93625335 L8.86921366,7.77174073 C8.55265867,7.40268342 8.32402384,7.00984766 8.22427027,6.74980055 L8.2026026,6.71911685 L8.16765178,6.65340398 L8.161,6.627 L8.12687375,6.54611387 C8.05542382,6.35395331 8.03771043,6.16748084 8.08035869,5.99943898 L8.11324405,5.90092748 C8.23558645,5.60736034 8.44980622,5.46280028 8.82933766,5.32508763 L8.97955436,5.27348869 L9.11496302,5.24490444 L9.08186921,5.24405228 C9.21439351,5.17992762 9.29726527,5.1315454 9.34986443,5.08825987 L9.372,5.066 L9.31216339,5.04043297 C9.28791545,5.02960799 9.27361307,5.02449489 9.26024586,5.02228894 L9.20482745,5.02035346 C9.05013952,5.09530462 8.89800987,5.14643084 8.73666866,5.17522452 L8.57182101,5.19662929 L8.54408609,5.19662929 C8.42768586,5.19662929 8.3114926,5.1709663 8.20756696,5.1175597 C8.07745946,5.04785926 7.99591309,4.92400166 7.97234506,4.78680543 L7.96523698,4.70321361 L7.96763288,4.57110337 L7.97910444,4.46796213 L7.97956378,4.40798987 L8.01438137,3.72191705 L8.01765535,3.61936226 C8.03526988,2.99306456 7.99482458,2.55659842 7.87445736,2.27880098 C7.74273495,1.94735661 7.54815176,1.65458874 7.30190866,1.40687832 C7.10073047,1.20696587 6.87977753,1.05300704 6.62057598,0.934430304 C6.31539328,0.790195985 6.01472681,0.721538086 5.72480005,0.702658628 L5.55218254,0.697060024 Z M11.1140707,8.68886893 L11.1062284,8.76728931 L11.0940166,8.81609589 L11.099,8.767 L11.0732657,8.88649073 C11.013914,9.01730678 10.90716,9.12625118 10.7556576,9.22292038 L10.633682,9.29327063 C10.424267,9.40428865 10.13523,9.49063494 9.78727521,9.55248847 L9.608,9.58 L9.53030562,9.96073754 C9.52597228,9.97887008 9.51979113,10.0030919 9.50742884,10.0515355 C9.43345188,10.2385915 9.28839549,10.3597802 9.07336065,10.3597802 C8.97212121,10.3597802 8.89011706,10.3510982 8.79539732,10.3237803 L8.66116369,10.2982519 C8.50470028,10.2691767 8.38636536,10.255202 8.25286953,10.2545361 C8.12282651,10.2545361 8.00408976,10.2668974 7.88045591,10.2933539 C7.71085969,10.3269774 7.54559802,10.4112274 7.29714001,10.5865913 L7.02245989,10.787651 C6.55875892,11.126048 6.19451798,11.3023983 5.73103059,11.3366604 L5.55218254,11.3428873 L5.42678963,11.3428873 C4.93505841,11.3419313 4.57479467,11.2055134 4.11955528,10.9023389 L3.67487442,10.5860674 C3.41979933,10.4022258 3.26731597,10.3194834 3.09737287,10.2863332 C2.98181287,10.261775 2.84941774,10.2483453 2.72784408,10.2483453 C2.63351538,10.2483453 2.54575275,10.2550374 2.45385015,10.2681984 L2.1430997,10.321397 L2.19356089,10.3147045 C2.08614889,10.3377213 1.99379582,10.351113 1.90735296,10.351113 C1.69182016,10.351113 1.51922747,10.2367291 1.47446967,10.073957 C1.42483364,9.9819974 1.39054446,9.90138583 1.370358,9.83310341 L1.35482636,9.76896704 L1.33539539,9.7040206 L1.303,9.562 L1.18050936,9.54040021 C0.895253826,9.48460861 0.642723036,9.41492781 0.428764372,9.33436808 L0.275619013,9.27195551 C0.104589332,9.19066589 -0.0325821686,9.09083202 -0.118685719,8.97250846 L-0.173419238,8.88029982 L-0.18392646,8.85693292 C-0.20248523,8.81205494 -0.211317193,8.77457561 -0.215143084,8.7357027 L-0.217717456,8.6467713 L-0.136630619,8.44105235 C-0.0605905217,8.35958082 -0.0167948296,8.31780953 0.0423356183,8.28702118 L0.108339843,8.2588302 L0.208,8.539 L0.161854156,8.24509326 C0.404438828,8.20606492 0.639918237,8.11921906 0.865829873,7.98639894 L1.03343117,7.87819248 C1.25367114,7.73639315 1.46519573,7.53872151 1.65955769,7.29127261 C1.87503792,7.02952 2.0362939,6.75732379 2.13309719,6.54776784 L2.18336302,6.43013577 L2.1953204,6.3897103 C2.24110238,6.29919744 2.25586902,6.22526413 2.24900551,6.17368617 L2.23994887,6.13928458 C2.20274768,6.04907869 2.08436795,5.97210711 1.8585777,5.89108116 L1.59073963,5.79641825 L1.56211931,5.78240918 C1.35638501,5.69119693 1.20482001,5.59900818 1.11771784,5.50633474 C0.943834254,5.34525954 0.871251215,5.13264736 0.91528833,4.96485964 C0.946542689,4.79742558 1.05919302,4.64026831 1.22682063,4.53773953 C1.41600511,4.42802245 1.64452052,4.38586836 1.82057042,4.44695814 L1.90379826,4.48627188 C2.08334388,4.57724846 2.21965371,4.61533247 2.31328496,4.61367663 L2.324,4.612 L2.31614469,4.49170958 L2.28089519,3.67522889 C2.26174948,2.94609952 2.30708931,2.42710194 2.46539472,2.04063084 C2.6510587,1.61534143 2.88136281,1.2638423 3.17060608,0.974153542 C3.42191543,0.724527067 3.70334451,0.52865188 4.01982458,0.385276588 C4.41150852,0.201129569 4.79534433,0.117164819 5.1622001,0.0982797325 L5.34417071,0.0940979826 L5.55218254,0.0940979826 C5.97689022,0.0940979826 6.42191597,0.173586859 6.874809,0.387657695 C7.19588672,0.534508599 7.47569032,0.729474253 7.72824914,0.980452003 C8.03239102,1.28639634 8.27251246,1.64768061 8.43123132,2.04744846 C8.57563361,2.38027812 8.62858614,2.81555062 8.62453918,3.40706713 L8.61702139,3.74282431 L8.58210444,4.42462633 L8.57970854,4.52702059 L8.572,4.59 L8.63970632,4.58144498 C8.7039727,4.56899784 8.77115296,4.54923257 8.84352011,4.52071693 L8.95624513,4.47120169 C9.05790643,4.4283468 9.14150029,4.41780976 9.23977012,4.41780976 C9.35278576,4.41780976 9.44864282,4.44100099 9.54253581,4.48342458 C9.80365559,4.58304008 10.002363,4.79983542 10.002363,5.05980533 C10.002363,5.20035228 9.94346206,5.34441739 9.82189275,5.47105978 C9.73452645,5.56466653 9.62719417,5.64007262 9.47903341,5.71881356 L9.35993153,5.77883104 C9.30142853,5.81142557 9.23484384,5.83607583 9.21450422,5.83697036 L9.16720684,5.84654676 C8.86404937,5.94584149 8.71257177,6.03036002 8.66965143,6.1333486 C8.65347829,6.17197642 8.65623052,6.23848397 8.68942051,6.32933264 L8.72019996,6.40197781 L8.725,6.422 L8.73811593,6.44443427 C8.83253655,6.66532655 8.97860192,6.92802524 9.17253984,7.18665939 L9.32691045,7.37915616 C9.72855545,7.8474161 10.2076985,8.16072869 10.7873921,8.26358226 C10.9818514,8.31132896 11.1140707,8.48132527 11.1140707,8.68886893 Z" id="Stroke-6" fill="#1F140F" fill-rule="nonzero"></path>
                                                    </g>
                                                </g>
                                                <g id="wsp">
                                                    <path d="M0.0955878497,22.2889729 L1.59816652,16.8416171 C0.62128715,15.150708 0.0955878497,13.2728234 0.0955878497,11.3190647 C0.0955878497,5.38326923 4.97930726,0.499549825 10.9523623,0.499549825 C16.9254174,0.499549825 21.8850109,5.38326923 21.8850109,11.3190647 C21.8850109,17.2548601 16.9254174,22.2889729 10.9523623,22.2889729 C9.07380026,22.2889729 7.27111233,21.6880769 5.65539991,20.7863942 L0.0955878497,22.2889729 Z" id="Fill-46" fill="#FEFEFE"></path>
                                                    <path d="M5.95611888,18.8325677 L6.29416521,19.0202207 C7.68428759,19.8846438 9.3,20.4103431 10.9902316,20.4103431 C15.9112107,20.4103431 20.0063811,16.3158501 20.0063811,11.3189969 C20.0063811,6.32282124 15.9112107,2.37804414 10.9522946,2.37804414 C5.9933785,2.37804414 1.97408217,6.36008086 1.97408217,11.3189969 C1.97408217,13.0471656 2.46252185,14.7380747 3.3635271,16.1654567 L3.58911713,16.5035031 L2.7253715,19.6590538 L5.95611888,18.8325677 Z" id="Fill-48" fill="#129F5C"></path>
                                                    <path d="M8.05993226,6.2852229 L7.34590253,6.24728584 C7.1203125,6.24728584 6.89539991,6.32248252 6.74500656,6.47287587 C6.40696023,6.77366259 5.84332386,7.33729895 5.69293051,8.08858829 C5.43008086,9.21518357 5.84332386,10.5680463 6.82020323,11.9202316 C7.7970826,13.272417 9.67496722,15.4517657 12.9809113,16.390708 C14.0329873,16.6914948 14.8594733,16.5031643 15.535566,16.0905988 C16.0619427,15.7525524 16.3999891,15.2261757 16.5124454,14.6625393 L16.6255791,14.13684 C16.6628387,13.9864467 16.587642,13.7987937 16.4372487,13.723597 L14.0709244,12.6342614 C13.920531,12.5590647 13.7328781,12.5963243 13.6197443,12.7467177 L12.680802,13.9491871 C12.6056053,14.0237063 12.4924716,14.0616434 12.3800153,14.0237063 C11.7418597,13.7987937 9.59977054,12.897111 8.4352382,10.643243 C8.39797858,10.5301093 8.39797858,10.417653 8.47317526,10.3424563 L9.37485795,9.32831731 C9.45005463,9.21518357 9.48731425,9.06546766 9.45005463,8.95233392 L8.36004152,6.51081294 C8.32278191,6.39835664 8.21032561,6.2852229 8.05993226,6.2852229" id="Fill-50" fill="#FEFEFE"></path>
                                                </g>
                                            </g>
                                            <g id="libres_en_red" transform="translate(128.769231, 0.000000)" fill-rule="nonzero">
                                                <path d="M8.70175962,13.4134615 L8.70175962,10.5027404 L3.57513462,10.5027404 L3.57513462,1.01942308 L0.345173077,1.01942308 L0.345173077,13.4134615 L8.70175962,13.4134615 Z M12.9879536,13.4134615 L12.9879536,1.01942308 L9.75799206,1.01942308 L9.75799206,13.4134615 L12.9879536,13.4134615 Z M20.6167822,13.4134615 C23.0016957,13.4134615 24.8044649,11.9111538 24.8044649,9.73280769 C24.8044649,8.26805769 23.9969745,7.27277885 22.7387918,6.76575 C23.208263,6.23994231 23.4899457,5.52634615 23.4899457,4.68129808 C23.4899457,2.48417308 21.6683976,1.01942308 19.302263,1.01942308 L14.8328976,1.01942308 L14.8328976,13.4134615 L20.6167822,13.4134615 Z M19.0956957,5.92070192 L17.9314072,5.92070192 L17.9314072,3.74235577 L19.0956957,3.74235577 C19.8656284,3.74235577 20.3350995,4.17426923 20.3350995,4.83152885 C20.3350995,5.48878846 19.8656284,5.92070192 19.0956957,5.92070192 Z M20.4102149,10.6905288 L17.9314072,10.6905288 L17.9314072,8.51218269 L20.4102149,8.51218269 C21.1613687,8.51218269 21.6496187,8.86898077 21.6496187,9.60135577 C21.6496187,10.3337308 21.1613687,10.6905288 20.4102149,10.6905288 Z M29.1469954,13.4134615 L29.1469954,9.56379808 L30.4802935,9.56379808 L33.2783416,13.4134615 L36.88388,13.4134615 L33.6163608,8.81264423 C34.818207,8.08026923 35.5693608,6.84086538 35.5693608,5.28222115 C35.5693608,2.65318269 33.5036877,1.01942308 30.780755,1.01942308 L25.9170339,1.01942308 L25.9170339,13.4134615 L29.1469954,13.4134615 Z M30.7995339,6.74697115 L29.1469954,6.74697115 L29.1469954,3.83625 L30.7995339,3.83625 C31.7009185,3.83625 32.2830627,4.41839423 32.2830627,5.28222115 C32.2830627,6.16482692 31.7009185,6.74697115 30.7995339,6.74697115 Z M46.3530356,13.4134615 L46.3530356,10.5027404 L40.7569394,10.5027404 L40.7569394,8.34317308 L44.587824,8.34317308 L44.587824,5.63901923 L40.7569394,5.63901923 L40.7569394,3.93014423 L46.1276894,3.93014423 L46.1276894,1.01942308 L37.5269779,1.01942308 L37.5269779,13.4134615 L46.3530356,13.4134615 Z M51.8598545,13.6388077 C54.4137776,13.6388077 56.4043353,12.2116154 56.4043353,9.77036538 C56.4043353,7.94881731 55.2963834,6.89720192 53.2307103,6.033375 L51.803518,5.43245192 C51.0335853,5.11321154 50.7331238,4.88786538 50.7331238,4.41839423 C50.7331238,3.85502885 51.2025949,3.62968269 51.8410757,3.62968269 C52.780018,3.62968269 53.3246045,4.11793269 53.8879699,4.94420192 L56.0475372,3.29166346 C55.3339411,1.86447115 53.9630853,0.794076923 51.803518,0.794076923 C49.2871526,0.794076923 47.4656045,2.24004808 47.4656045,4.45595192 C47.4656045,6.20238462 48.629893,7.32911538 50.6016719,8.19294231 L51.8786334,8.75630769 C52.7424603,9.13188462 53.1368161,9.31967308 53.1368161,9.90181731 C53.1368161,10.5027404 52.7236815,10.8032019 51.8598545,10.8032019 C50.4702199,10.8032019 49.7002872,10.0144904 49.0993642,9.207 L46.921018,10.8595385 C47.8036238,12.5308558 49.5876142,13.6388077 51.8598545,13.6388077 Z" id="LIBRES" fill="#D2227A"></path>
                                                <path d="M4.78234615,22.3557692 L4.78234615,21.3363462 L1.13388462,21.3363462 L1.13388462,19.0936154 L3.78438462,19.0936154 L3.78438462,18.1063846 L1.13388462,18.1063846 L1.13388462,16.2928846 L4.65357692,16.2928846 L4.65357692,15.2734615 L-0.00357692308,15.2734615 L-0.00357692308,22.3557692 L4.78234615,22.3557692 Z M11.9397692,22.4738077 L11.9397692,15.2734615 L10.8023077,15.2734615 L10.8023077,20.0486538 L6.49926923,15.1554231 L6.10223077,15.1554231 L6.10223077,22.3557692 L7.23969231,22.3557692 L7.23969231,17.5591154 L11.5534615,22.4738077 L11.9397692,22.4738077 Z M17.8738846,22.3557692 L17.8738846,19.6194231 L19.1723077,19.6194231 L21.1896923,22.3557692 L22.4881154,22.3557692 L20.3634231,19.437 C20.7926538,19.2724615 21.1270962,19.0149231 21.36675,18.6643846 C21.6064038,18.3138462 21.7262308,17.9060769 21.7262308,17.4410769 C21.7262308,16.8043846 21.5044615,16.2839423 21.0609231,15.87975 C20.6173846,15.4755577 20.0379231,15.2734615 19.3225385,15.2734615 L19.3225385,15.2734615 L16.7364231,15.2734615 L16.7364231,22.3557692 L17.8738846,22.3557692 Z M19.3010769,18.6107308 L17.8738846,18.6107308 L17.8738846,16.2821538 L19.3010769,16.2821538 C19.6873846,16.2821538 19.9932115,16.3894615 20.2185577,16.6040769 C20.4439038,16.8186923 20.5565769,17.1012692 20.5565769,17.4518077 C20.5565769,17.8023462 20.4439038,18.0831346 20.2185577,18.2941731 C19.9932115,18.5052115 19.6873846,18.6107308 19.3010769,18.6107308 L19.3010769,18.6107308 Z M28.2934615,22.3557692 L28.2934615,21.3363462 L24.645,21.3363462 L24.645,19.0936154 L27.2955,19.0936154 L27.2955,18.1063846 L24.645,18.1063846 L24.645,16.2928846 L28.1646923,16.2928846 L28.1646923,15.2734615 L23.5075385,15.2734615 L23.5075385,22.3557692 L28.2934615,22.3557692 Z M31.8346154,22.3557692 C32.9792308,22.3557692 33.9074423,22.0231154 34.61925,21.3578077 C35.3310577,20.6925 35.6869615,19.8411923 35.6869615,18.8038846 C35.6869615,17.7522692 35.3328462,16.9009615 34.6246154,16.2499615 C33.9163846,15.5989615 32.9863846,15.2734615 31.8346154,15.2734615 L31.8346154,15.2734615 L29.6133462,15.2734615 L29.6133462,22.3557692 L31.8346154,22.3557692 Z M31.8238846,21.3363462 L30.7508077,21.3363462 L30.7508077,16.3036154 L31.8238846,16.3036154 C32.6465769,16.3036154 33.3011538,16.53075 33.7876154,16.9850192 C34.2740769,17.4392885 34.5173077,18.0455769 34.5173077,18.8038846 C34.5173077,19.5550385 34.2722885,20.1649038 33.78225,20.6334808 C33.2922115,21.1020577 32.6394231,21.3363462 31.8238846,21.3363462 L31.8238846,21.3363462 Z M44.0247692,22.3557692 L44.0247692,21.1217308 L44.9905385,21.1217308 L44.9905385,20.1452308 L44.0247692,20.1452308 L44.0247692,17.9668846 L42.8873077,17.9668846 L42.8873077,20.1452308 L40.7733462,20.1452308 L42.78,15.2734615 L41.6103462,15.2734615 L39.3461538,20.8105385 L39.3461538,21.1217308 L42.8873077,21.1217308 L42.8873077,22.3557692 L44.0247692,22.3557692 Z M49.3794231,22.4738077 C50.0876538,22.4738077 50.7350769,22.3056923 51.3216923,21.9694615 C51.9083077,21.6332308 52.3625769,21.1789615 52.6845,20.6066538 L52.6845,20.6066538 L52.6845,18.6107308 L49.3686923,18.6107308 L49.3686923,19.6194231 L51.5470385,19.6194231 L51.5470385,20.3813077 C51.0820385,21.0966923 50.3773846,21.4543846 49.4330769,21.4543846 C48.6747692,21.4543846 48.0505962,21.2022115 47.5605577,20.6978654 C47.0705192,20.1935192 46.8255,19.5621923 46.8255,18.8038846 C46.8255,18.0527308 47.0633654,17.4303462 47.5390962,16.9367308 C48.0148269,16.4431154 48.6246923,16.1963077 49.3686923,16.1963077 C50.2486154,16.1963077 50.9532692,16.5683077 51.4826538,17.3123077 L51.4826538,17.3123077 L52.3089231,16.6362692 C51.6006923,15.6490385 50.6241923,15.1554231 49.3794231,15.1554231 C48.3492692,15.1411154 47.4639808,15.4952308 46.7235577,16.2177692 C45.9831346,16.9403077 45.6236538,17.8059231 45.6451154,18.8146154 C45.6308077,19.8304615 45.9902885,20.6978654 46.7235577,21.4168269 C47.4568269,22.1357885 48.3421154,22.4881154 49.3794231,22.4738077 Z" id="ENRED4G" fill="#4F008C"></path>
                                            </g>
                                        </g>
                                    </g>
                                    <g id="Plan-40-GIGAS" transform="translate(3.000000, 0.000000)" fill-rule="nonzero">
                                        <path d="M21.775,53 L21.775,10.1 L18.2,10.1 L0.65,15.885 L3.315,25.765 L10.595,23.36 L10.595,53 L21.775,53 Z M47.086739,53.78 C51.9400723,53.78 56.0134057,52.3391667 59.306739,49.4575 C62.6000723,46.5758333 64.246739,42.9466667 64.246739,38.57 C64.3334057,34.54 62.8925723,31.2033333 59.924239,28.56 C56.9559057,25.9166667 53.6084057,24.6383333 49.881739,24.725 C48.6684057,24.725 47.3034057,24.8766667 45.786739,25.18 L45.786739,25.18 L45.786739,20.175 L61.776739,20.175 L61.776739,10.1 L35.191739,10.1 L35.191739,34.345 L45.396739,34.345 C50.336739,34.345 52.806739,35.7966667 52.806739,38.7 C52.806739,40.2166667 52.2434057,41.3975 51.116739,42.2425 C49.9900723,43.0875 48.4950723,43.51 46.631739,43.51 C44.8550723,43.51 43.3275723,43.0875 42.049239,42.2425 C40.7709057,41.3975 39.481739,40 38.181739,38.05 L38.181739,38.05 L30.446739,43.51 C31.9200723,46.7166667 34.119239,49.23 37.044239,51.05 C39.969239,52.87 43.316739,53.78 47.086739,53.78 Z" id="15" fill="#4F008C"></path>
                                        <path d="M91.0864746,53.6012451 L91.55,53.6 C95.0833333,53.6 98.2833333,52.7666667 101.15,51.1 C104.016667,49.4 106.216667,47.1833333 107.75,44.45 L107.75,44.45 L107.75,34.05 L91.45,34.05 L91.45,41.45 L99.15,41.45 L99.15,43 C97.45,44.9666667 95.0333333,45.95 91.9,45.95 C89,45.95 86.6916667,45.0833333 84.975,43.35 C83.2583333,41.6166667 82.4,39.3333333 82.4,36.5 C82.4,33.7 83.2083333,31.4666667 84.825,29.8 C86.4416667,28.1333333 88.6333333,27.3 91.4,27.3 C94.8,27.3 97.5833333,28.8166667 99.75,31.85 L99.75,31.85 L105.75,26.75 C102.45,21.85 97.7166667,19.4 91.55,19.4 C86.5833333,19.3333333 82.3333333,20.9833333 78.8,24.35 C75.2666667,27.7166667 73.5333333,31.7666667 73.6,36.5 C73.5333333,41.2666667 75.2666667,45.325 78.8,48.675 C82.3333333,52.025 86.5833333,53.6666667 91.55,53.6 L91.0864746,53.6012451 Z M120.25,53 L120.25,20 L111.65,20 L111.65,53 L120.25,53 Z M141.636475,53.6012451 L142.1,53.6 C145.633333,53.6 148.833333,52.7666667 151.7,51.1 C154.566667,49.4 156.766667,47.1833333 158.3,44.45 L158.3,44.45 L158.3,34.05 L142,34.05 L142,41.45 L149.7,41.45 L149.7,43 C148,44.9666667 145.583333,45.95 142.45,45.95 C139.55,45.95 137.241667,45.0833333 135.525,43.35 C133.808333,41.6166667 132.95,39.3333333 132.95,36.5 C132.95,33.7 133.758333,31.4666667 135.375,29.8 C136.991667,28.1333333 139.183333,27.3 141.95,27.3 C145.35,27.3 148.133333,28.8166667 150.3,31.85 L150.3,31.85 L156.3,26.75 C153,21.85 148.266667,19.4 142.1,19.4 C137.133333,19.3333333 132.883333,20.9833333 129.35,24.35 C125.816667,27.7166667 124.083333,31.7666667 124.15,36.5 C124.083333,41.2666667 125.816667,45.325 129.35,48.675 C132.883333,52.025 137.133333,53.6666667 142.1,53.6 L141.636475,53.6012451 Z M167.75,53 L168.95,50.25 L180.8,50.25 L182,53 L191.25,53 L176.25,19.4 L173.5,19.4 L158.5,53 L167.75,53 Z M177.75,43.35 L172,43.35 L174.9,35.7 L177.75,43.35 Z M204.4,53.6 C207.9,53.6 210.791667,52.6666667 213.075,50.8 C215.358333,48.9333333 216.5,46.4333333 216.5,43.3 C216.5,41 215.825,39.075 214.475,37.525 C213.125,35.975 210.983333,34.5833333 208.05,33.35 L208.05,33.35 L204.25,31.75 C203.183333,31.3166667 202.441667,30.9083333 202.025,30.525 C201.608333,30.1416667 201.4,29.65 201.4,29.05 C201.4,27.65 202.383333,26.95 204.35,26.95 C205.483333,26.95 206.466667,27.225 207.3,27.775 C208.133333,28.325 208.966667,29.2166667 209.8,30.45 L209.8,30.45 L215.55,26.05 C213.35,21.6166667 209.583333,19.4 204.25,19.4 C200.85,19.4 198.075,20.3 195.925,22.1 C193.775,23.9 192.7,26.25 192.7,29.15 C192.7,33.3166667 195.483333,36.6333333 201.05,39.1 L201.05,39.1 L204.45,40.6 C205.816667,41.2 206.716667,41.6833333 207.15,42.05 C207.583333,42.4166667 207.8,42.95 207.8,43.65 C207.8,45.25 206.666667,46.05 204.4,46.05 C202.833333,46.05 201.483333,45.6916667 200.35,44.975 C199.216667,44.2583333 198.116667,43.2 197.05,41.8 L197.05,41.8 L191.25,46.2 C192.45,48.5 194.208333,50.3083333 196.525,51.625 C198.841667,52.9416667 201.466667,53.6 204.4,53.6 Z" id="GIGAS" fill="#DB167A"></path>
                                    </g>
                                </g>
                                <g id="precio" transform="translate(18.000000, 206.000000)" fill-rule="nonzero">
                                    <path d="M61.125712,44 L71.850712,29.635 C73.8873787,26.8616667 75.360712,24.5433333 76.270712,22.68 C77.2240453,20.8166667 77.700712,18.6933333 77.700712,16.31 C77.700712,11.76 76.0648787,7.9575 72.793212,4.9025 C69.5215453,1.8475 65.6540453,0.32 61.190712,0.32 C56.8573787,0.233333333 53.000712,1.75 49.620712,4.87 C46.240712,7.99 44.5940453,11.76 44.680712,16.18 C44.680712,20.1233333 45.948212,23.4708333 48.483212,26.2225 C51.018212,28.9741667 54.0190453,30.5883333 57.485712,31.065 L57.485712,31.065 L47.930712,44 L61.125712,44 Z M61.190712,21.77 C59.6740453,21.77 58.3848787,21.25 57.323212,20.21 C56.2615453,19.17 55.730712,17.8483333 55.730712,16.245 C55.730712,14.6416667 56.2615453,13.2983333 57.323212,12.215 C58.3848787,11.1316667 59.6740453,10.59 61.190712,10.59 C62.7073787,10.59 63.9965453,11.1316667 65.058212,12.215 C66.1198787,13.2983333 66.650712,14.6416667 66.650712,16.245 C66.650712,17.805 66.130712,19.1158333 65.090712,20.1775 C64.050712,21.2391667 62.750712,21.77 61.190712,21.77 Z M82.924284,44.78 C85.004284,44.78 86.726784,44.0866667 88.091784,42.7 C89.456784,41.3133333 90.139284,39.58 90.139284,37.5 C90.139284,35.42 89.456784,33.6866667 88.091784,32.3 C86.726784,30.9133333 85.004284,30.22 82.924284,30.22 C80.7576173,30.22 78.9809507,30.9133333 77.594284,32.3 C76.2076173,33.6866667 75.514284,35.42 75.514284,37.5 C75.514284,39.58 76.2076173,41.3133333 77.594284,42.7 C78.9809507,44.0866667 80.7576173,44.78 82.924284,44.78 Z M106.282856,44 L117.007856,29.635 C119.044523,26.8616667 120.517856,24.5433333 121.427856,22.68 C122.381189,20.8166667 122.857856,18.6933333 122.857856,16.31 C122.857856,11.76 121.222023,7.9575 117.950356,4.9025 C114.678689,1.8475 110.811189,0.32 106.347856,0.32 C102.014523,0.233333333 98.157856,1.75 94.777856,4.87 C91.397856,7.99 89.7511893,11.76 89.837856,16.18 C89.837856,20.1233333 91.105356,23.4708333 93.640356,26.2225 C96.175356,28.9741667 99.1761893,30.5883333 102.642856,31.065 L102.642856,31.065 L93.087856,44 L106.282856,44 Z M106.347856,21.77 C104.831189,21.77 103.542023,21.25 102.480356,20.21 C101.418689,19.17 100.887856,17.8483333 100.887856,16.245 C100.887856,14.6416667 101.418689,13.2983333 102.480356,12.215 C103.542023,11.1316667 104.831189,10.59 106.347856,10.59 C107.864523,10.59 109.153689,11.1316667 110.215356,12.215 C111.277023,13.2983333 111.807856,14.6416667 111.807856,16.245 C111.807856,17.805 111.287856,19.1158333 110.247856,20.1775 C109.207856,21.2391667 107.907856,21.77 106.347856,21.77 Z M140.561428,44 L151.286428,29.635 C153.323095,26.8616667 154.796428,24.5433333 155.706428,22.68 C156.659761,20.8166667 157.136428,18.6933333 157.136428,16.31 C157.136428,11.76 155.500595,7.9575 152.228928,4.9025 C148.957261,1.8475 145.089761,0.32 140.626428,0.32 C136.293095,0.233333333 132.436428,1.75 129.056428,4.87 C125.676428,7.99 124.029761,11.76 124.116428,16.18 C124.116428,20.1233333 125.383928,23.4708333 127.918928,26.2225 C130.453928,28.9741667 133.454761,30.5883333 136.921428,31.065 L136.921428,31.065 L127.366428,44 L140.561428,44 Z M140.626428,21.77 C139.109761,21.77 137.820595,21.25 136.758928,20.21 C135.697261,19.17 135.166428,17.8483333 135.166428,16.245 C135.166428,14.6416667 135.697261,13.2983333 136.758928,12.215 C137.820595,11.1316667 139.109761,10.59 140.626428,10.59 C142.143095,10.59 143.432261,11.1316667 144.493928,12.215 C145.555595,13.2983333 146.086428,14.6416667 146.086428,16.245 C146.086428,17.805 145.566428,19.1158333 144.526428,20.1775 C143.486428,21.2391667 142.186428,21.77 140.626428,21.77 Z M177.44,44.78 C183.073333,44.78 187.45,42.6783333 190.57,38.475 C193.69,34.2716667 195.25,28.855 195.25,22.225 C195.25,15.6816667 193.700833,10.395 190.6025,6.365 C187.504167,2.335 183.116667,0.32 177.44,0.32 C171.763333,0.32 167.375833,2.335 164.2775,6.365 C161.179167,10.395 159.63,15.6816667 159.63,22.225 C159.63,28.855 161.19,34.2716667 164.31,38.475 C167.43,42.6783333 171.806667,44.78 177.44,44.78 Z M177.44,34.51 C173.193333,34.51 171.07,30.4366667 171.07,22.29 C171.07,18.26 171.59,15.3025 172.63,13.4175 C173.67,11.5325 175.273333,10.59 177.44,10.59 C179.606667,10.59 181.21,11.5325 182.25,13.4175 C183.29,15.3025 183.81,18.26 183.81,22.29 C183.81,30.4366667 181.686667,34.51 177.44,34.51 Z" id="9.990" fill="#4F008C"></path>
                                    <path d="M11.772,38.492 L11.772,34.1 C15.228,33.524 17.748,31.256 17.748,27.8 C17.748,24.812 15.876,22.796 12.276,21.464 L9.576,20.528 C8.136,19.952 7.164,19.412 7.164,18.26 C7.164,16.892 8.46,16.424 9.756,16.424 C11.448,16.424 12.744,17.18 13.896,18.872 L17.136,16.424 C16.056,14.408 14.328,12.824 11.772,12.32 L11.772,8.036 L7.524,8.036 L7.524,12.392 C4.536,13.112 2.412,15.236 2.412,18.224 C2.412,21.284 4.572,23.3 7.776,24.488 L10.224,25.388 C11.844,26.036 12.996,26.612 12.996,27.872 C12.996,29.312 11.628,29.996 9.864,29.996 C7.56,29.996 5.76,28.808 4.428,26.72 L1.152,29.168 C2.484,31.688 4.644,33.416 7.524,34.028 L7.524,38.492 L11.772,38.492 Z" id="$" fill="#DB167A"></path>
                                    <path d="M69.948,62.132 C70.676,62.132 71.338,61.97 71.934,61.646 C72.53,61.322 73,60.876 73.344,60.308 L73.344,60.308 L72.384,59.6 C71.8,60.512 70.992,60.968 69.96,60.968 C69.144,60.968 68.464,60.69 67.92,60.134 C67.376,59.578 67.104,58.88 67.104,58.04 C67.104,57.2 67.376,56.502 67.92,55.946 C68.464,55.39 69.144,55.112 69.96,55.112 C70.992,55.112 71.8,55.568 72.384,56.48 L72.384,56.48 L73.344,55.772 C73,55.212 72.528,54.768 71.928,54.44 C71.328,54.112 70.668,53.948 69.948,53.948 C68.812,53.932 67.828,54.328 66.996,55.136 C66.164,55.944 65.76,56.912 65.784,58.04 C65.76,59.168 66.164,60.136 66.996,60.944 C67.828,61.752 68.812,62.148 69.948,62.132 Z M75.492,62 L76.056,60.68 L79.62,60.68 L80.184,62 L81.552,62 L78.06,53.948 L77.628,53.948 L74.136,62 L75.492,62 Z M79.164,59.588 L76.512,59.588 L77.844,56.312 L79.164,59.588 Z M84.084,62 L84.084,58.94 L85.536,58.94 L87.792,62 L89.244,62 L86.868,58.736 C87.348,58.552 87.722,58.264 87.99,57.872 C88.258,57.48 88.392,57.024 88.392,56.504 C88.392,55.792 88.144,55.21 87.648,54.758 C87.152,54.306 86.504,54.08 85.704,54.08 L85.704,54.08 L82.812,54.08 L82.812,62 L84.084,62 Z M85.68,57.812 L84.084,57.812 L84.084,55.208 L85.68,55.208 C86.112,55.208 86.454,55.328 86.706,55.568 C86.958,55.808 87.084,56.124 87.084,56.516 C87.084,56.908 86.958,57.222 86.706,57.458 C86.454,57.694 86.112,57.812 85.68,57.812 L85.68,57.812 Z M94.08,62.132 C94.872,62.132 95.596,61.944 96.252,61.568 C96.908,61.192 97.416,60.684 97.776,60.044 L97.776,60.044 L97.776,57.812 L94.068,57.812 L94.068,58.94 L96.504,58.94 L96.504,59.792 C95.984,60.592 95.196,60.992 94.14,60.992 C93.292,60.992 92.594,60.71 92.046,60.146 C91.498,59.582 91.224,58.876 91.224,58.028 C91.224,57.188 91.49,56.492 92.022,55.94 C92.554,55.388 93.236,55.112 94.068,55.112 C95.052,55.112 95.84,55.528 96.432,56.36 L96.432,56.36 L97.356,55.604 C96.564,54.5 95.472,53.948 94.08,53.948 C92.928,53.932 91.938,54.328 91.11,55.136 C90.282,55.944 89.88,56.912 89.904,58.04 C89.888,59.176 90.29,60.146 91.11,60.95 C91.93,61.754 92.92,62.148 94.08,62.132 Z M103.008,62.132 C104.136,62.148 105.118,61.752 105.954,60.944 C106.79,60.136 107.196,59.168 107.172,58.04 C107.196,56.912 106.79,55.944 105.954,55.136 C105.118,54.328 104.136,53.932 103.008,53.948 C101.872,53.932 100.892,54.328 100.068,55.136 C99.244,55.944 98.84,56.912 98.856,58.04 C98.832,59.168 99.234,60.136 100.062,60.944 C100.89,61.752 101.872,62.148 103.008,62.132 Z M103.02,60.968 C102.196,60.968 101.516,60.69 100.98,60.134 C100.444,59.578 100.176,58.876 100.176,58.028 C100.176,57.188 100.446,56.492 100.986,55.94 C101.526,55.388 102.204,55.112 103.02,55.112 C103.828,55.112 104.504,55.39 105.048,55.946 C105.592,56.502 105.864,57.196 105.864,58.028 C105.864,58.868 105.592,59.568 105.048,60.128 C104.504,60.688 103.828,60.968 103.02,60.968 Z M113.328,62 L113.328,58.736 L116.472,58.736 L116.472,57.584 L113.328,57.584 L113.328,55.22 L117.144,55.22 L117.144,54.08 L112.056,54.08 L112.056,62 L113.328,62 Z M119.676,62 L119.676,54.08 L118.404,54.08 L118.404,62 L119.676,62 Z M122.016,62.132 C122.728,62.132 123.278,61.954 123.666,61.598 C124.054,61.242 124.248,60.72 124.248,60.032 L124.248,60.032 L124.248,54.08 L122.976,54.08 L122.976,59.9 C122.976,60.292 122.876,60.568 122.676,60.728 C122.476,60.888 122.164,60.968 121.74,60.968 C121.596,60.968 121.324,60.948 120.924,60.908 L120.924,60.908 L120.924,62 C121.324,62.088 121.688,62.132 122.016,62.132 Z M129.912,62.132 C131.04,62.148 132.022,61.752 132.858,60.944 C133.694,60.136 134.1,59.168 134.076,58.04 C134.1,56.912 133.694,55.944 132.858,55.136 C132.022,54.328 131.04,53.932 129.912,53.948 C128.776,53.932 127.796,54.328 126.972,55.136 C126.148,55.944 125.744,56.912 125.76,58.04 C125.736,59.168 126.138,60.136 126.966,60.944 C127.794,61.752 128.776,62.148 129.912,62.132 Z M129.924,60.968 C129.1,60.968 128.42,60.69 127.884,60.134 C127.348,59.578 127.08,58.876 127.08,58.028 C127.08,57.188 127.35,56.492 127.89,55.94 C128.43,55.388 129.108,55.112 129.924,55.112 C130.732,55.112 131.408,55.39 131.952,55.946 C132.496,56.502 132.768,57.196 132.768,58.028 C132.768,58.868 132.496,59.568 131.952,60.128 C131.408,60.688 130.732,60.968 129.924,60.968 Z M140.232,62 L140.232,57.02 L142.512,60.008 L142.944,60.008 L145.212,57.032 L145.212,62 L146.484,62 L146.484,53.948 L146.052,53.948 L142.728,58.376 L139.404,53.948 L138.96,53.948 L138.96,62 L140.232,62 Z M153.828,62 L153.828,60.86 L149.748,60.86 L149.748,58.352 L152.712,58.352 L152.712,57.248 L149.748,57.248 L149.748,55.22 L153.684,55.22 L153.684,54.08 L148.476,54.08 L148.476,62 L153.828,62 Z M161.832,62.132 L161.832,54.08 L160.56,54.08 L160.56,59.42 L155.748,53.948 L155.304,53.948 L155.304,62 L156.576,62 L156.576,56.636 L161.4,62.132 L161.832,62.132 Z M166.26,62.132 C167.028,62.132 167.662,61.92 168.162,61.496 C168.662,61.072 168.912,60.52 168.912,59.84 C168.912,59.328 168.762,58.9 168.462,58.556 C168.162,58.212 167.68,57.888 167.016,57.584 L167.016,57.584 L166.128,57.176 C166.104,57.16 166.068,57.14 166.02,57.116 C165.756,56.98 165.6,56.9 165.552,56.876 C165.504,56.852 165.42,56.79 165.3,56.69 C165.18,56.59 165.106,56.494 165.078,56.402 C165.05,56.31 165.032,56.192 165.024,56.048 C165.024,55.744 165.136,55.508 165.36,55.34 C165.584,55.172 165.872,55.088 166.224,55.088 C166.904,55.088 167.46,55.408 167.892,56.048 L167.892,56.048 L168.78,55.364 C168.532,54.932 168.182,54.588 167.73,54.332 C167.278,54.076 166.776,53.948 166.224,53.948 C165.52,53.948 164.928,54.148 164.448,54.548 C163.968,54.948 163.728,55.464 163.728,56.096 C163.728,56.6 163.882,57.022 164.19,57.362 C164.498,57.702 164.96,58.012 165.576,58.292 L165.576,58.292 L166.452,58.7 C166.892,58.908 167.196,59.09 167.364,59.246 C167.532,59.402 167.616,59.616 167.616,59.888 C167.616,60.224 167.49,60.492 167.238,60.692 C166.986,60.892 166.656,60.992 166.248,60.992 C165.44,60.992 164.748,60.572 164.172,59.732 L164.172,59.732 L163.272,60.416 C163.584,60.952 164,61.372 164.52,61.676 C165.04,61.98 165.62,62.132 166.26,62.132 Z M173.724,62.132 C174.676,62.132 175.454,61.832 176.058,61.232 C176.662,60.632 176.964,59.82 176.964,58.796 L176.964,58.796 L176.964,54.08 L175.692,54.08 L175.692,58.88 C175.692,59.536 175.512,60.048 175.152,60.416 C174.792,60.784 174.316,60.968 173.724,60.968 C173.124,60.968 172.642,60.784 172.278,60.416 C171.914,60.048 171.732,59.536 171.732,58.88 L171.732,58.88 L171.732,54.08 L170.46,54.08 L170.46,58.796 C170.46,59.82 170.762,60.632 171.366,61.232 C171.97,61.832 172.756,62.132 173.724,62.132 Z M179.496,62 L180.06,60.68 L183.624,60.68 L184.188,62 L185.556,62 L182.064,53.948 L181.632,53.948 L178.14,62 L179.496,62 Z M183.168,59.588 L180.516,59.588 L181.848,56.312 L183.168,59.588 Z M191.712,62 L191.712,60.86 L188.088,60.86 L188.088,54.08 L186.816,54.08 L186.816,62 L191.712,62 Z" id="CARGOFIJOMENSUAL" fill="#4F008C"></path>
                                </g>
                                <path d="M21.704,13 L21.704,8.584 L24.168,8.584 C25.1813333,8.584 25.9973333,8.296 26.616,7.72 C27.2346667,7.144 27.544,6.40266667 27.544,5.496 C27.544,4.6 27.2346667,3.86666667 26.616,3.296 C25.9973333,2.72533333 25.1813333,2.44 24.168,2.44 L24.168,2.44 L20.456,2.44 L20.456,13 L21.704,13 Z M24.136,7.464 L21.704,7.464 L21.704,3.56 L24.136,3.56 C24.7973333,3.56 25.3146667,3.73866667 25.688,4.096 C26.0613333,4.45333333 26.248,4.92533333 26.248,5.512 C26.248,6.10933333 26.0613333,6.584 25.688,6.936 C25.3146667,7.288 24.7973333,7.464 24.136,7.464 L24.136,7.464 Z M35.88,13 L35.88,11.88 L30.872,11.88 L30.872,2.44 L29.624,2.44 L29.624,13 L35.88,13 Z M38.072,13 L38.968,10.856 L44.152,10.856 L45.048,13 L46.376,13 L41.8,2.264 L41.336,2.264 L36.76,13 L38.072,13 Z M43.672,9.736 L39.448,9.736 L41.56,4.536 L43.672,9.736 Z M56.744,13.176 L56.744,2.44 L55.496,2.44 L55.496,10.376 L48.776,2.264 L48.328,2.264 L48.328,13 L49.576,13 L49.576,5.08 L56.296,13.176 L56.744,13.176 Z" id="PLAN" fill="#4F008C" fill-rule="nonzero"></path>
                            </g>
                        </g>
                    </g>
                </g>
            </g>
        </g>
    </g>
</svg>